<svg xmlns="http://www.w3.org/2000/svg" width="24" height="24" viewBox="0 0 24 24" fill="none">
  <path d="M17 9C17 9 17 7.827 17 7C17 5.5 16 5 14.5 5C13 5 12.5 6 12.5 6" stroke="#238378" stroke-width="1.5" stroke-linecap="round"/>
  <path d="M7 5.5C5 5.5 3 6.5 3 9.5V15C3 18 5 19.5 7 19.5H17C19 19.5 21 18 21 15V9.5C21 6.5 19 5.5 17 5.5" stroke="#238378" stroke-width="1.5" stroke-linecap="round" stroke-linejoin="round"/>
  <circle cx="12" cy="13" r="4" stroke="#238378" stroke-width="1.5"/>
  <line x1="12" y1="10.5" x2="12" y2="15.5" stroke="#238378" stroke-width="1.5" stroke-linecap="round"/>
  <line x1="9.5" y1="13" x2="14.5" y2="13" stroke="#238378" stroke-width="1.5" stroke-linecap="round"/>
</svg>
