<svg preserveAspectRatio="none" width="100%" height="100%" overflow="visible" style="display: block;" viewBox="0 0 24.3571 28.9286" fill="none" xmlns="http://www.w3.org/2000/svg">
<g id="Group">
<path id="Vector" d="M4.55952 14.4643H14.0833M4.55952 18.3827H17.8929M4.55952 22.301H10.2738M23.6071 24.2602V10.5459L14.0833 0.75H4.55952C3.54918 0.75 2.58021 1.16283 1.86578 1.89766C1.15136 2.6325 0.75 3.62915 0.75 4.66837V24.2602C0.75 25.2994 1.15136 26.2961 1.86578 27.0309C2.58021 27.7657 3.54918 28.1786 4.55952 28.1786H19.7976C20.808 28.1786 21.7769 27.7657 22.4914 27.0309C23.2058 26.2961 23.6071 25.2994 23.6071 24.2602Z" stroke="var(--stroke-0, #238378)" stroke-width="1.5" stroke-linecap="round" stroke-linejoin="round"/>
<path id="Vector_2" d="M14.0833 0.75V6.46429C14.0833 7.47463 14.4847 8.4436 15.1991 9.15803C15.9135 9.87245 16.8825 10.2738 17.8929 10.2738H23.6071" stroke="var(--stroke-0, #238378)" stroke-width="1.5" stroke-linecap="round" stroke-linejoin="round"/>
</g>
</svg>
